<svg xmlns="http://www.w3.org/2000/svg" width="400" height="400" viewBox="0 0 400 400">

  <!-- Top row (2 hexagons) -->
  <polygon points="140,80 180,100 180,140 140,160 100,140 100,100" fill="#FFD700" stroke="#000" stroke-width="2"/>
  <polygon points="220,80 260,100 260,140 220,160 180,140 180,100" fill="#FFD700" stroke="#000" stroke-width="2"/>

  <!-- Middle row (3 hexagons) -->
  <polygon points="100,160 140,180 140,220 100,240 60,220 60,180" fill="#FFD700" stroke="#000" stroke-width="2"/>
  <polygon points="180,160 220,180 220,220 180,240 140,220 140,180" fill="#FFD700" stroke="#000" stroke-width="2"/>
  <polygon points="260,160 300,180 300,220 260,240 220,220 220,180" fill="#FFD700" stroke="#000" stroke-width="2"/>

  <!-- Bottom row (2 hexagons) -->
  <polygon points="140,240 180,260 180,300 140,320 100,300 100,260" fill="#FFD700" stroke="#000" stroke-width="2"/>
  <polygon points="220,240 260,260 260,300 220,320 180,300 180,260" fill="#FFD700" stroke="#000" stroke-width="2"/>

</svg>
